HIERARCHY
ROOT SimulationBone
{
	OFFSET 0.000000 0.000000 0.000000
	CHANNELS 6 Xposition Yposition Zposition Zrotation Yrotation Xrotation 
	JOINT Hips
	{
		OFFSET 0.000000 0.000000 0.000000
		CHANNELS 6 Xposition Yposition Zposition Zrotation Yrotation Xrotation 
		JOINT RightUpLeg
		{
			OFFSET 0.103462 1.857831 10.548496
			CHANNELS 3 Zrotation Yrotation Xrotation
			JOINT RightLeg
			{
				OFFSET 43.500000 -0.000038 -0.000010
				CHANNELS 3 Zrotation Yrotation Xrotation
				JOINT RightFoot
				{
					OFFSET 42.372192 0.000011 0.000010
					CHANNELS 3 Zrotation Yrotation Xrotation
					JOINT RightToe
					{
						OFFSET 17.299999 0.000001 -0.000001
						CHANNELS 3 Zrotation Yrotation Xrotation
						End Site
						{
							OFFSET 0.000000 0.000000 0.000000
						}
					}
				}
			}
		}
		JOINT LeftUpLeg
		{
			OFFSET 0.103456 1.857825 -10.548502
			CHANNELS 3 Zrotation Yrotation Xrotation
			JOINT LeftLeg
			{
				OFFSET 43.500038 -0.000023 0.000011
				CHANNELS 3 Zrotation Yrotation Xrotation
				JOINT LeftFoot
				{
					OFFSET 42.372261 -0.000008 0.000011
					CHANNELS 3 Zrotation Yrotation Xrotation
					JOINT LeftToe
					{
						OFFSET 17.299994 -0.000004 0.000002
						CHANNELS 3 Zrotation Yrotation Xrotation
						End Site
						{
							OFFSET 0.000000 0.000000 0.000000
						}
					}
				}
			}
		}
		JOINT Spine
		{
			OFFSET 6.901965 -2.603729 -0.000002
			CHANNELS 3 Zrotation Yrotation Xrotation
			JOINT Spine1
			{
				OFFSET 12.588101 -0.000004 0.000003
				CHANNELS 3 Zrotation Yrotation Xrotation
				JOINT Spine2
				{
					OFFSET 12.343205 0.000006 0.000001
					CHANNELS 3 Zrotation Yrotation Xrotation
					JOINT Neck
					{
						OFFSET 25.832897 -0.000008 -0.000001
						CHANNELS 3 Zrotation Yrotation Xrotation
						JOINT Head
						{
							OFFSET 11.766601 0.000009 -0.000008
							CHANNELS 3 Zrotation Yrotation Xrotation
							End Site
							{
								OFFSET 0.000000 0.000000 0.000000
							}
						}
					}
					JOINT RightShoulder
					{
						OFFSET 19.745893 -1.480370 6.000097
						CHANNELS 3 Zrotation Yrotation Xrotation
						JOINT RightArm
						{
							OFFSET 11.284136 -0.000006 -0.000021
							CHANNELS 3 Zrotation Yrotation Xrotation
							JOINT RightForeArm
							{
								OFFSET 33.000042 0.000005 0.000030
								CHANNELS 3 Zrotation Yrotation Xrotation
								JOINT RightHand
								{
									OFFSET 25.200008 0.000013 0.000010
									CHANNELS 3 Zrotation Yrotation Xrotation
									End Site
									{
										OFFSET 0.000000 0.000000 0.000000
									}
								}
							}
						}
					}
					JOINT LeftShoulder
					{
						OFFSET 19.746088 -1.480379 -6.000076
						CHANNELS 3 Zrotation Yrotation Xrotation
						JOINT LeftArm
						{
							OFFSET 11.284133 -0.000016 -0.000013
							CHANNELS 3 Zrotation Yrotation Xrotation
							JOINT LeftForeArm
							{
								OFFSET 33.000095 0.000019 0.000001
								CHANNELS 3 Zrotation Yrotation Xrotation
								JOINT LeftHand
								{
									OFFSET 25.199785 0.000138 0.000422
									CHANNELS 3 Zrotation Yrotation Xrotation
									End Site
									{
										OFFSET 0.000000 0.000000 0.000000
									}
								}
							}
						}
					}
				}
			}
		}
	}
}
MOTION
Frames: 10
Frame Time: 0.033333
18.552493 0.000000 228.942647 180.000000 8.230943 180.000000 0.883776 66.612518 2.357311 102.211863 3.719980 173.359211 -178.965259 -25.419497 170.029309 -78.385758 2.749854 -8.478508 106.826208 5.496600 -34.486011 21.454563 0.003108 0.000017 142.047526 35.874612 -175.988143 -39.507358 1.298638 4.337133 55.198679 5.164199 17.030520 21.454553 -0.003090 0.000001 13.158978 1.264613 2.445819 16.356140 2.170309 5.046840 16.039123 2.200570 5.033674 -15.920324 10.760510 5.177867 -21.937178 -21.396662 17.704465 -167.849208 -69.806193 -13.882996 13.048191 58.744968 38.525446 -59.577684 -19.512464 2.423766 4.484623 -11.404761 46.389511 173.686301 83.351879 -4.758293 -6.541833 -39.592469 11.464792 -111.211695 2.091176 -3.386040 7.601423 -8.040992 -75.536052 
19.555008 0.000000 232.348526 180.000000 7.496622 180.000000 0.746528 69.877327 2.028768 101.679135 3.768258 176.929029 178.481285 -23.194503 170.921700 -74.727583 2.355791 -8.719306 108.184596 6.029591 -31.123721 21.454557 0.003108 0.000017 151.010456 34.435191 -174.612010 -29.363215 -1.463946 9.691024 65.024624 -0.621776 16.698984 21.454551 -0.003094 0.000000 12.502088 0.855122 2.348193 15.021830 1.397721 4.787875 14.704832 1.426440 4.779363 -15.709469 9.046221 4.411158 -22.771212 -20.005187 15.957810 -165.189696 -69.322916 -16.630710 9.370080 57.150416 32.138297 -66.026366 -17.767441 2.556796 3.925946 -11.799329 47.602553 -168.013269 79.568979 13.736150 7.377759 -44.517995 4.852852 -111.981696 1.506261 -3.378176 7.416081 -9.262754 -60.974069 
20.529019 0.000000 235.986290 180.000000 6.713087 180.000000 0.638113 73.307426 1.789766 101.295602 4.365428 -179.581676 176.263851 -20.675003 172.516235 -71.102604 2.111710 -9.343179 107.387301 6.227759 -26.838154 21.454560 0.003102 0.000017 158.862646 31.166706 -176.442515 -22.892547 -2.990487 17.273308 77.277867 -9.965362 8.053881 21.454550 -0.003084 0.000008 11.998575 0.680506 1.978552 14.004637 1.116230 4.025089 13.687325 1.140362 4.018279 -15.085637 7.457707 4.305480 -23.611547 -18.831535 14.965269 -163.820393 -69.221167 -18.045819 7.537377 56.305890 26.492717 -73.820978 -14.933269 2.683301 2.370340 -12.807399 48.329568 -159.172941 75.611157 22.782890 17.079487 -45.865506 -2.301352 -113.895597 1.304112 -3.445338 7.608520 -10.226889 -55.557326 
21.480397 0.000000 239.833878 180.000000 5.883868 180.000000 0.593658 76.740692 1.534108 101.622714 5.195367 -176.441396 175.608835 -17.437896 175.323566 -66.842513 1.599977 -10.491730 105.253297 6.604901 -23.013971 21.454560 0.003104 0.000017 165.100262 28.036999 -177.262096 -22.758059 -0.813498 19.169274 76.456591 -10.381120 11.739727 21.454551 -0.003093 0.000000 11.771899 0.722749 1.382880 13.547741 1.278417 2.841064 13.229971 1.295409 2.833290 -14.210297 8.034048 5.007648 -24.977469 -20.236319 16.733158 -163.234104 -69.324672 -18.650296 5.868909 56.540391 20.087180 -81.877316 -10.271472 2.705488 1.358584 -13.021801 50.327276 -155.622418 73.938649 26.448402 22.682295 -46.271584 -7.720860 -116.338093 1.019572 -3.527914 9.136107 -12.533621 -55.561359 
22.415012 0.000000 243.869225 180.000000 5.012612 180.000000 0.673156 79.909477 1.609165 101.831346 6.201298 -175.418524 176.935600 -14.731004 176.086211 -61.151203 0.996269 -11.757139 103.431406 7.245019 -19.283919 21.454555 0.003110 0.000018 167.456745 24.300095 -176.399607 -27.112748 2.000304 13.013427 77.871144 -7.260643 7.516726 21.454553 -0.003096 0.000001 11.581580 0.808694 0.979684 13.164881 1.500541 2.045244 12.846898 1.512726 2.036140 -14.658445 9.213328 5.730932 -24.022525 -21.229331 18.087430 -162.869303 -70.280973 -19.017099 4.934375 58.061840 15.510706 -89.176459 -5.074340 2.664900 -0.116460 -11.697930 50.038413 -155.064829 74.142516 27.015121 24.382973 -45.789376 -11.692561 -118.724698 0.739342 -3.606887 12.117209 -14.560051 -54.814283 
23.338736 0.000000 248.070270 180.000000 4.103104 180.000000 0.608083 82.926239 1.619106 100.706301 6.882145 -176.523523 177.984198 -12.032304 174.576630 -54.810663 0.343010 -12.537651 100.615401 7.555762 -15.552949 21.454557 0.003109 0.000017 166.425960 18.991501 -176.962019 -32.266913 1.657695 7.249574 76.091640 -2.828999 8.497151 21.454553 -0.003091 -0.000002 11.104913 0.876395 0.789305 12.210433 1.664526 1.666917 11.892328 1.674425 1.656825 -15.385353 11.011791 6.496341 -22.582644 -22.524321 19.700977 -163.318702 -70.955331 -18.547201 4.315815 59.026611 15.242071 -95.830962 -1.915796 2.741784 -0.901088 -9.464179 46.678879 -156.486409 75.287850 25.535606 22.593743 -44.188295 -14.545760 -120.982895 0.657819 -3.692776 14.925430 -15.892633 -55.194100 
24.257440 0.000000 252.414948 180.000000 3.159271 180.000000 0.497273 85.788330 1.350088 99.440491 6.423311 -178.242973 178.438514 -9.100098 172.562366 -49.325707 -1.402115 -12.141692 94.381077 7.071283 -11.211309 21.454560 0.003106 0.000018 165.143251 15.141906 -178.551622 -36.916507 2.964460 4.081521 74.786350 -0.147831 9.683831 21.454550 -0.003090 0.000000 10.695182 0.836869 0.479367 11.386037 1.622482 1.038905 11.067850 1.628590 1.029078 -16.600251 11.413191 7.882091 -20.700654 -22.664808 20.899071 -162.663400 -71.364494 -19.217716 2.988459 59.641321 16.975028 -101.339209 -0.585962 2.895398 -2.179952 -7.400033 42.464311 -159.674673 77.016865 22.248600 18.006108 -42.963556 -16.272149 -122.249308 0.643665 -3.742392 15.080059 -15.620967 -55.669313 
25.176996 0.000000 256.881197 180.000000 2.185190 180.000000 0.328086 88.151993 1.045151 98.550556 5.485305 -179.089557 177.486892 -8.182693 168.634283 -47.446964 -3.762066 -8.271575 85.468575 4.493887 -7.156191 21.454560 0.003107 0.000019 164.485982 12.725494 -176.238633 -41.084694 3.778208 2.442768 74.474320 2.123832 13.317052 21.454555 -0.003088 0.000000 10.433752 0.789489 0.112109 10.857704 1.564982 0.297872 10.539480 1.566616 0.288404 -17.314849 11.781029 8.971560 -19.849605 -22.829291 22.013211 -162.957795 -71.901347 -18.909319 0.510135 59.819814 17.269508 -105.715701 0.411837 3.020232 -3.663013 -4.562846 36.788857 -162.959776 78.256886 18.884805 12.464152 -41.766972 -17.775952 -122.008817 0.701195 -3.736809 11.488653 -12.360052 -55.914217 
26.103275 0.000000 261.446954 180.000000 1.185089 180.000000 0.021590 89.952721 0.846193 97.615873 3.972654 -178.398295 175.002984 -8.885300 164.866355 -49.610878 -5.110214 0.180157 77.299764 -2.461484 -9.045135 21.454558 0.003108 0.000019 164.211203 11.967698 -172.554757 -43.988109 3.761491 0.375106 74.836491 3.764063 13.901931 21.454555 -0.003088 -0.000002 10.196476 0.656717 -0.343957 10.377144 1.341661 -0.627637 10.058982 1.337710 -0.635736 -16.987830 12.500371 9.338965 -19.897733 -23.165883 22.731484 -166.704905 -71.787959 -15.055777 -2.166106 58.597436 16.295546 -110.084508 1.040744 3.168004 -5.835985 -1.618147 32.287421 -166.904101 78.835792 14.865914 7.709851 -41.407458 -18.776868 -121.463809 0.749630 -3.718418 8.566253 -9.250280 -56.780636 
27.042147 0.000000 266.090156 180.000000 0.163338 180.000000 -0.172761 90.947052 0.862735 97.022971 2.541826 -177.768800 171.878254 -10.680999 164.688811 -53.891401 -5.871747 9.574776 72.701497 -11.724673 -15.016652 21.454557 0.003110 0.000017 163.883709 11.016099 -172.698055 -45.483862 3.553225 -2.131656 75.310895 5.684756 14.385468 21.454553 -0.003092 0.000000 10.109428 0.393478 -0.444233 10.203167 0.824635 -0.852034 9.885089 0.819338 -0.857006 -17.188195 13.465768 8.580298 -20.053823 -22.924217 22.262184 -170.430691 -71.497245 -11.222206 -4.629389 57.754249 14.237834 -114.288305 1.571333 3.312027 -7.534727 0.790218 31.846170 -168.740479 78.528666 12.997518 4.010532 -41.368683 -19.116204 -121.369907 0.843482 -3.721169 6.810123 -7.512269 -57.771106 
